<svg xmlns="http://www.w3.org/2000/svg" width="140" height="139" fill="none">
  <path fill="#93C5FD" d="M20.813 64.766h94.823v72.924a.561.561 0 0 1-.56.56H21.373a.56.56 0 0 1-.56-.56V64.766Z" />
  <path fill="#3B82F6" d="M91.848 36.191h-44.09L20.812 64.77h94.823L91.848 36.19Z" />
  <path fill="#60A5FA" d="m29.794 24.758 17.963 11.43-26.944 28.578L.4 49.252l29.394-24.494ZM109.81 24.758l-17.963 11.43 23.788 28.578 23.569-15.514-29.394-24.494Z" />
  <path fill="#3B82F6" d="M59.34 25.342a2.174 2.174 0 0 0 1.07-2.814L52.33 3.474a2.174 2.174 0 0 0-2.933-1.116l-1.557.738a2.175 2.175 0 0 0-.993 2.977l9.638 18.317a2.174 2.174 0 0 0 2.855.952ZM69.472 23.499a1.426 1.426 0 0 0 1.323-1.464L70.396 8.47a1.424 1.424 0 0 0-1.526-1.38l-1.127.08a1.425 1.425 0 0 0-1.316 1.582l1.527 13.484a1.426 1.426 0 0 0 1.518 1.263ZM77.293 28.51c1.009.583 2.425.048 3.21-1.214L94.456 4.89c.834-1.338.636-2.97-.434-3.589L92.529.44c-1.07-.619-2.583.024-3.327 1.414L76.742 25.12c-.701 1.31-.459 2.805.55 3.389Z" />
</svg>
